<svg width="781" height="183" viewBox="0 0 781 183" fill="none" xmlns="http://www.w3.org/2000/svg">
<path d="M548.244 85.8696C554.247 85.566 559.274 85.4147 565.128 86.5657C586.016 90.6848 595.746 111.916 590.78 131.602C584.735 155.571 565.001 160.742 543.854 155.361L542.406 154.958C538.817 160.557 549.26 192.073 526.579 180.445C525.015 177.831 526.099 145.9 526.07 139.616C525.993 123.227 525.508 106.104 525.704 89.7354C533.004 87.6723 540.704 86.5597 548.244 85.8696ZM541.524 100.43L541.308 140.992C550.265 144.304 556.623 145.677 565.922 141.731C585.767 129.025 577.016 95.9933 548.871 99.6755C546.534 99.8951 543.813 100.08 541.524 100.43Z" fill="#D9D3C6"/>
<path d="M740.338 59.3152C744.581 59.0007 750.563 58.3478 753.92 60.8718C755.599 65.1229 754.815 142.362 754.832 152.745C753.956 153.106 753.068 153.438 752.169 153.742C738.386 158.465 718.569 159.529 705.081 152.764C690.665 142.609 685.411 125.643 690.848 108.929C693.521 100.481 699.512 93.4896 707.437 89.5698C718.106 84.1797 728.278 84.9826 739.216 88.6384C739.413 83.2915 738.426 62.0492 740.338 59.3152ZM723.062 144.275C729.014 144.629 733.527 143.947 739.326 142.501L739.316 101.832C731.757 99.7091 730.168 99.1042 722.362 99.5831C697.986 106.239 698.89 138.807 723.062 144.275Z" fill="#D9D3C6"/>
<path d="M327.323 85.878C341.868 84.559 359.761 87.5895 366.768 101.445C382.706 132.955 360.838 165.019 325 156.061C323.567 155.566 324.077 155.661 322.501 155.612C319.692 160.66 324.904 174.905 320.07 180.226C317.169 183.418 309.488 182.333 306.781 179.518C305.608 157.798 307.067 135.116 306.489 113.303C306.289 105.735 306.278 97.6171 306.908 90.0895C310.28 87.3554 322.525 86.4277 327.323 85.878ZM322.081 141.066C332.157 145.365 341.245 145.568 350.251 138.872C354.99 132.433 357.153 126.397 355.915 118.292C352.838 98.1296 338.16 98.7225 322.577 99.7691C321.216 102.412 321.631 136.31 322.081 141.066Z" fill="#D9D3C6"/>
<path d="M636.624 85.6932C656.34 83.6972 673.973 98.0156 676.13 117.77C678.285 137.525 664.157 155.329 644.476 157.656C624.56 160.013 606.546 145.637 604.366 125.645C602.184 105.654 616.67 87.7119 636.624 85.6932ZM644.073 144.026C649.833 142.248 655.177 139.482 657.63 133.699C664.832 116.721 657.232 98.7333 637.622 99.4894C616.659 104.18 615.291 132.681 630.763 141.691C634.796 143.99 639.5 144.815 644.073 144.026Z" fill="#D9D3C6"/>
<path d="M416.071 85.8468C438.405 84.6862 450.661 97.8824 453.028 119.379C453.313 121.967 453.043 124.176 451.292 126.193C447.274 128.053 407.629 127.521 400.346 127.577C401.267 129.847 402.507 133.083 403.871 135.044C407.162 139.846 412.304 143.053 418.055 143.887C427.989 145.425 434.593 141.429 442.12 136.015C444.608 137.616 451.846 144.02 448.699 147.279C437.618 159.271 411.733 161.104 398.954 150.908C373.715 130.768 382.874 90.3583 416.071 85.8468ZM400.394 116.201L423.532 116.352L436.905 115.974C434.836 103.396 428.928 98.234 416.171 98.8737C406.044 101.724 403.089 106.272 400.394 116.201Z" fill="#D9D3C6"/>
<path d="M228.453 87.0698C231.848 87.0098 235.165 86.6425 238.054 88.3216C241.697 93.7777 236.812 124.869 240.022 133.63C245.152 147.633 258.545 144.749 270.183 141.494C269.23 124.998 270.531 105.199 269.915 87.9819C270.44 87.8859 270.966 87.7959 271.494 87.7107C288.767 84.961 285.65 91.9306 285.459 106.11C284.857 119.319 285.57 138.348 285.645 152.011C273.539 156.895 258.447 158.753 245.718 156.883C223.161 153.572 222.126 134.242 222.991 116.023C223.424 106.886 222.161 97.9568 223.825 88.69C225.543 87.1442 225.744 87.5667 228.453 87.0698Z" fill="#D9D3C6"/>
<path d="M177.015 85.8576C184.736 85.5408 202.586 86.9342 206.237 94.7835C206.409 98.3205 203.452 101.891 201.448 104.912C194.781 102.365 176.956 94.361 170.321 102.644C165.087 109.176 180.307 113.809 185.098 114.815C202.529 118.474 215.789 130.738 203.868 148.741C199.623 155.071 189.767 157.032 182.027 157.691C171.163 157.585 140.782 152.747 158.355 136.972C164.313 140.006 168.94 143.624 175.9 144.711C181.879 145.644 192.401 145.037 193.114 137.049C190.855 127.754 170.126 127.548 162.825 121.4C159.234 118.834 154.877 114.269 154.612 109.343C153.799 94.289 164.491 87.3651 177.015 85.8576Z" fill="#D9D3C6"/>
<path d="M502.671 85.8492C504.779 85.8276 511.969 85.5684 512.746 88.186C513.72 91.4697 513.695 97.7108 512.218 100.789C509.298 102.506 503.647 100.559 500.552 100.207C494.994 99.5759 488.526 104.731 484.408 107.958C484.148 115.533 485.429 146.165 483.497 155.024C483.162 156.564 476.235 156.426 473.581 156.426C471.662 156.073 471.37 156.145 469.665 155.13C468.382 151.869 468.705 96.1601 469.269 89.4786C471.633 86.6581 479.447 86.4457 481.861 88.4536C483.255 90.7232 483.018 93.438 483.144 96.2225C489.676 88.9481 492.72 87.035 502.671 85.8492Z" fill="#D9D3C6"/>
<path d="M92.1864 12.2967C96.3921 11.6308 107.298 12.1797 111.545 13.0156C124.213 15.5111 129.876 20.4791 136.871 30.5019C140.798 31.9613 152.54 33.105 153 38.2588C152.747 38.9433 152.666 39.6436 151.836 39.7555C142.703 40.9824 127.97 38.7252 119.273 39.4348C99.8343 41.0197 79.0221 52.3828 63.9774 64.0781C55.4414 71.3149 44.2584 83.0676 39.2135 93.2296C37.1502 85.1347 35.8433 76.9638 34.3018 68.762C32.7063 60.2696 30.8322 51.6546 29.8995 43.0682C47.2055 25.7384 67.5873 14.7254 92.1864 12.2967ZM113.108 33.4142C114.749 32.7548 115.545 30.8951 114.886 29.2584C114.228 27.6211 112.364 26.824 110.721 27.4776C109.073 28.1327 108.271 29.9967 108.931 31.6384C109.592 33.28 111.463 34.0758 113.108 33.4142Z" fill="#D9D3C6"/>
<path d="M23.9133 48.9791C24.6784 51.0427 25.9961 60.8 26.5999 63.7963C29.3109 76.8871 32.2248 89.9349 35.3403 102.936C27.1547 117.992 24.5625 130.796 23.7413 147.759L21.1966 144.668C13.3766 134.232 9.32993 128.029 7.20906 114.582C4.41962 96.8926 6.58583 78.9406 14.8779 62.9073C17.4565 57.9207 20.6626 53.4893 23.9133 48.9791Z" fill="#D9D3C6"/>
<path d="M12.662 140.085C13.9221 140.676 17.912 147.431 19.2815 149.032C24.4416 155.066 27.8276 155.498 19.6011 160.879C13.6271 164.785 9.42491 169.022 5.76971 175.06C4.33036 177.553 3.26309 180.333 2.15768 183C0.942875 179.502 0.233997 175.849 0.0526395 172.152C-0.569876 159.594 4.37066 149.231 12.662 140.085Z" fill="#D9D3C6"/>
<path d="M94.6023 51.9761C95.0485 52.4561 95.0312 52.2566 94.9967 52.9562C94.3763 65.6574 83.5093 87.5133 68.6711 87.5119C68.5524 87.0405 68.3422 86.244 68.5862 85.7805C72.3386 78.6514 73.1827 73.5629 72.2249 65.6632C78.7969 60.4541 87.1847 55.8075 94.6023 51.9761Z" fill="#D9D3C6"/>
<path d="M26.5286 19.837C34.0737 19.1977 41.6684 20.2044 48.7845 22.7881C41.7087 26.6992 34.268 32.6681 28.4732 38.3608L26.1307 40.7422C19.8667 32.295 17.7127 32.3818 8.89958 28.2956L8.63043 27.5573C9.66892 23.464 22.5705 20.2532 26.5286 19.837Z" fill="#D9D3C6"/>
<path d="M28.8877 135.851C40.7277 136.014 50.7146 142.733 56.6526 152.655L52.6182 151.761C47.3689 150.889 42.75 150.989 37.6922 152.597C35.9664 153.013 30.3199 155.357 29.0756 153.234C26.9626 149.628 28.4394 139.975 28.8877 135.851Z" fill="#D9D3C6"/>
<path d="M149.374 43.168L150.411 43.0446L150.65 43.5683C149.235 46.4721 144.245 47.3424 141.205 47.8834C127.406 50.3358 113.46 53.698 100.479 59.0642C99.9783 59.2063 100.304 59.1525 99.4867 59.0384C99.1262 57.6917 99.5774 56.1297 99.8365 54.7148C115.879 49.0816 132.489 45.21 149.374 43.168Z" fill="#D9D3C6"/>
<path d="M67.9925 71.2668L68.3473 71.5381C68.7539 72.6215 68.561 74.5853 68.5258 75.8165C59.3233 81.9304 51.8661 86.8897 43.3819 94.1875L42.9177 94.1616C50.3339 84.1733 57.6544 78.0343 67.9925 71.2668Z" fill="#D9D3C6"/>
</svg>
