<?xml version="1.0" encoding="utf-8" ?><svg xmlns="http://www.w3.org/2000/svg" xmlns:xlink="http://www.w3.org/1999/xlink" width="1024" height="1024" viewBox="0 0 1024 1024"><path fill="#103B54" d="M497.767 59.3962C747.338 51.5262 956.179 247.171 964.593 496.724C973.007 746.278 777.818 955.544 528.283 964.501C277.979 973.487 67.9253 777.564 59.4856 527.24C51.0458 276.916 247.426 67.2906 497.767 59.3962Z"/><path fill="#FEFEFE" d="M382.804 243.212C391.607 242.413 408.144 242.924 417.686 242.905L490.371 243.006L586.028 243.018C602.779 242.982 622.574 242.421 639.109 243.037C680.58 244.436 719.795 262.263 748.115 292.591C766.451 312.545 779.379 336.858 785.669 363.217C789.957 381.751 789.014 402.421 789.006 421.534L788.965 479.675L788.972 550.612C788.983 563.257 789.352 577.871 788.851 590.313C786.882 630.499 768.953 668.236 739.045 695.148C715.262 716.933 677.683 733.359 644.982 733.087C615.793 732.845 585.543 733.758 556.44 732.552C555.708 734.585 554.435 737.243 553.537 739.276C539.292 768.391 526.035 798.211 511.747 827.497C496.97 796.386 482.247 763.702 467.104 732.923L407.257 732.794C382.656 732.813 362.839 734.194 339.006 726.19C318.174 719.194 302.961 710.648 286.397 696.267C256.127 670.324 237.602 633.267 235.016 593.484C234.286 582.831 234.648 569.864 234.66 559.033L234.726 501.792L234.704 433.047C234.665 409.001 233.322 386.127 238.906 362.602C244.841 337.766 256.823 314.782 273.785 295.694C301.669 264.357 340.918 245.463 382.804 243.212Z"/><path fill="#41ACC2" d="M378.762 262.198C380.74 261.942 385.073 261.933 387.233 261.911L558.295 261.846L612.295 261.856C629.866 261.866 646.581 260.955 663.817 264.755C689.055 270.141 712.223 282.641 730.582 300.777C759.314 329.116 770.344 361.629 770.482 401.191L770.129 522.835L770.198 562.886C770.251 582.273 771.132 595.84 766.389 615.071C760.655 638.339 748.658 659.591 731.7 676.523C710.895 697.662 683.354 710.861 653.845 713.837C643.575 714.833 631.921 714.532 621.471 714.538L576.75 714.536C566.54 714.442 556.33 714.46 546.12 714.589C543.781 717.279 542.942 719.031 541.335 722.155C530.92 742.388 521.52 763.048 511.723 783.578C504.607 767.554 496.155 751.656 489.036 735.572C486.209 729.183 482.291 719.315 477.382 714.543C454.387 714.042 430.495 714.883 407.413 714.527C389.183 714.4 371.779 715.442 353.785 711.427C299.495 699.313 258.916 651.797 253.859 596.655C252.78 584.879 253.064 572.427 253.074 560.501L253.124 509.406L253.224 434.168C253.253 412.241 252.147 389.583 256.646 368.177C260.89 347.7 270.049 328.561 283.333 312.41C308.207 282.068 340.135 266.035 378.762 262.198Z"/><path fill="#103B54" d="M508.617 291.609C517.654 290.865 525.926 294.241 530.591 302.297C533.52 307.372 534.263 313.419 532.65 319.053C530.463 326.54 526.267 329.718 519.96 333.282L519.99 358.105C588.624 361.619 642.615 398.575 669.769 461.777C684.378 462.595 696.926 470.787 701.686 485.007C703.021 488.994 703.444 492.605 704.008 496.773C705.14 497.209 706.258 497.685 707.358 498.198C716.109 502.425 722.851 509.919 726.132 519.066C729.364 528.222 728.779 538.292 724.509 547.012C719.878 556.411 713.302 561.09 703.671 564.378C703.702 565.17 703.715 565.962 703.708 566.755C703.706 580.049 697.852 590.621 684.977 595.556C678.992 597.85 673.072 597.53 666.799 597.442C661.585 609.522 654.059 620.467 644.646 629.66C624.334 649.838 597.133 661.747 568.491 661.126C563.32 661.014 558.064 661.084 552.885 661.053L515.75 660.959L473.453 661.041C453.565 661.09 436.54 662.425 417.548 655.398C388.736 644.738 368.58 625.762 355.481 598.442C333.103 597.187 320.352 588.373 318.548 564.918C311.66 561.27 306.568 557.479 302.288 550.81C296.639 541.818 294.833 530.936 297.276 520.601C300.266 507.584 307.933 500.317 318.78 493.502C320.435 473.072 333.056 461.395 354.022 463.001C359.467 445.171 371.019 426.791 383.566 413.05C416.134 377.383 456.663 360.562 504.054 357.822C503.999 349.625 504.053 341.428 504.216 333.233C483.399 323.942 486.197 295.922 508.617 291.609Z"/><path fill="#FEFEFE" d="M393.509 429.414C416.652 409.18 433.976 409.991 462.584 409.983L502.962 409.914L554.258 409.95C562.853 409.953 572.386 409.765 580.887 410.006C596.551 410.449 619.212 420.267 630.023 431.822C631.984 433.672 634.258 435.73 636.07 437.691C659.381 462.922 660.475 488.584 659.67 520.831C659.363 533.136 659.777 546.433 659.509 558.855C658.987 583.053 648.99 604.081 631.339 620.54C620.223 630.905 605.959 638.897 591.174 642.632C577.379 646.116 563.828 645.479 549.749 645.41L513.493 645.274C493.689 645.298 469.777 646.168 450.34 645.424C425.912 644.587 402.832 634.018 386.239 616.071C363.087 591.038 361.956 565.204 361.967 533.236C361.98 492.957 360.798 459.66 393.509 429.414Z"/><path fill="#A5D7E8" d="M393.509 429.414L392.982 525.809C392.98 538.604 392.181 564.66 394.775 575.889C397.256 586.725 402.724 596.65 410.56 604.536C431.996 625.871 455.632 622.135 483.258 622.337C510.561 622.534 537.864 622.523 565.166 622.303C603.196 621.985 630.924 593.247 630.416 555.568C630.244 542.796 630.374 529.79 630.332 516.993L630.023 431.822C631.984 433.672 634.258 435.73 636.07 437.691C659.381 462.922 660.475 488.584 659.67 520.831C659.363 533.136 659.777 546.433 659.509 558.855C658.987 583.053 648.99 604.081 631.339 620.54C620.223 630.905 605.959 638.897 591.174 642.632C577.379 646.116 563.828 645.479 549.749 645.41L513.493 645.274C493.689 645.298 469.777 646.168 450.34 645.424C425.912 644.587 402.832 634.018 386.239 616.071C363.087 591.038 361.956 565.204 361.967 533.236C361.98 492.957 360.798 459.66 393.509 429.414Z"/><path fill="#103B54" d="M571.998 462.414C594.599 461.068 614.035 478.249 615.471 500.845C616.908 523.441 599.804 542.945 577.214 544.472C554.496 546.007 534.857 528.785 533.413 506.061C531.968 483.337 549.268 463.767 571.998 462.414Z"/><path fill="#2284A4" d="M595.296 488.48C602.547 497.72 601.49 513.683 592.515 522.011C585.306 528.701 576.465 531.782 566.519 528.988C559.994 527.163 554.528 522.693 551.447 516.658C540.867 496.172 560.575 470.149 582.141 478.901C588.377 478.083 594.16 482.294 595.296 488.48Z"/><path fill="#FEFEFE" d="M582.141 478.901C588.377 478.083 594.16 482.294 595.296 488.48C596.17 493.234 594.059 498.041 589.968 500.615C585.876 503.189 580.63 503.011 576.722 500.165C572.814 497.32 571.034 492.381 572.228 487.697C573.422 483.013 577.348 479.529 582.141 478.901Z"/><path fill="#103B54" d="M440.313 462.149C462.649 460.317 482.261 476.892 484.177 499.221C486.093 521.549 469.591 541.223 447.27 543.223C424.83 545.234 405.028 528.626 403.101 506.178C401.175 483.73 417.858 463.991 440.313 462.149Z"/><path fill="#2284A4" d="M461.359 485.886C470.184 490.735 471.482 504.119 467.652 512.598C458.56 532.727 426.368 534.165 418.977 511.644C414.421 497.765 421.16 483.758 435.221 479.089C439.333 477.724 446.659 477.407 450.664 479.501C455.725 480.603 457.847 481.919 461.359 485.886Z"/><path fill="#FEFEFE" d="M450.664 479.501C455.725 480.603 457.847 481.919 461.359 485.886C465.932 497.032 456.273 507.99 446.039 503.208C442.587 501.586 439.974 498.588 438.838 494.947C436.1 485.908 443.1 481.451 450.664 479.501Z"/><path fill="#103B54" d="M475.898 561.142C499.002 560.33 522.64 561.622 545.827 561.187C558.081 560.377 558.827 567.512 555.81 577.416C552.624 587.879 548.517 594.659 540.197 601.864C537.344 604.086 534.247 605.974 530.966 607.492C519.661 612.557 506.805 612.915 495.236 608.486C484.543 604.374 475.654 595.951 471.319 585.366C467.295 575.54 464.042 566.262 475.898 561.142Z"/><path fill="#EE8B90" d="M484.768 576.986L539.548 577.12C537.18 582.471 535.933 584.384 531.816 588.459C515.544 601.859 492.869 597.245 484.768 576.986Z"/><path fill="#A5D7E8" d="M504.683 374.221C537.107 372.777 569.274 380.574 597.438 396.706C583.608 393.156 574.104 394.095 560.092 393.973L527.75 393.692L472.623 393.678C459.067 393.656 445.731 393.413 432.2 394.354C455.701 380.925 477.863 375.601 504.683 374.221Z"/><path fill="#A5D7E8" d="M348.787 478.472C349.298 478.578 348.933 478.477 349.783 479.018C350.249 482.08 349.769 484.99 349.763 488.071C349.716 512.144 349.837 536.222 349.844 560.295C349.846 567.656 350.007 574.707 350.536 582.038C346.618 581.084 343.998 580.359 340.543 578.312C338.469 576.381 336.768 573.973 335.855 571.277C334.142 566.216 334.081 505.48 334.689 495.748C334.866 492.902 335.149 489.411 336.554 486.909C339.307 482.008 343.696 480.086 348.787 478.472Z"/><path fill="#A5D7E8" d="M674.164 479.095C683.048 480.791 688.084 488.838 688.016 497.556C687.826 521.878 689.03 546.549 687.664 570.815C687.515 573.46 685.4 576.332 683.698 578.226C681.187 579.818 676.688 581.741 673.807 580.248C673.293 577.991 675.763 568.521 675.785 565.286C675.948 540.961 676.084 516.622 675.908 492.298C675.876 487.833 675.079 483.447 674.164 479.095Z"/><path fill="#EE8B90" d="M704.058 515.636C713.807 519.595 714.504 534.605 708.877 542.617C707.628 544.005 705.622 545.689 704.186 546.972C704.225 536.527 704.182 526.081 704.058 515.636Z"/><path fill="#EE8B90" d="M318.887 512.498C319.6 513.44 319.129 542.022 319.105 545.365L315.643 541.904C308.532 531.434 311.397 521.593 318.887 512.498Z"/><path fill="#EE8B90" d="M510.622 307.875C512.536 307.442 514.534 308.073 515.852 309.526C517.17 310.979 517.603 313.03 516.986 314.892C516.368 316.754 514.796 318.139 512.871 318.517C509.953 319.09 507.116 317.213 506.502 314.304C505.887 311.395 507.722 308.532 510.622 307.875Z"/></svg>