<svg width="761" height="124" viewBox="0 0 761 124" fill="none" xmlns="http://www.w3.org/2000/svg">
<path d="M554.244 26.8696C560.247 26.566 565.274 26.4147 571.128 27.5657C592.016 31.6848 601.746 52.9163 596.78 72.602C590.735 96.5712 571.001 101.742 549.854 96.3612L548.406 95.9579C544.817 101.557 555.26 133.073 532.579 121.445C531.015 118.831 532.099 86.9 532.07 80.6157C531.993 64.227 531.508 47.1038 531.704 30.7354C539.004 28.6723 546.704 27.5597 554.244 26.8696ZM547.524 41.4304L547.308 81.9924C556.265 85.3038 562.623 86.6768 571.922 82.7305C591.767 70.0252 583.016 36.9933 554.871 40.6755C552.534 40.8951 549.813 41.08 547.524 41.4304Z" fill="#555D50"/>
<path d="M746.338 0.315178C750.581 0.000725712 756.563 -0.652186 759.92 1.87183C761.599 6.12294 760.815 83.3618 760.832 93.7447C759.956 94.106 759.068 94.4385 758.169 94.7421C744.386 99.4649 724.569 100.529 711.081 93.7639C696.665 83.609 691.411 66.643 696.848 49.929C699.521 41.4808 705.512 34.4896 713.437 30.5698C724.106 25.1797 734.278 25.9826 745.216 29.6384C745.413 24.2915 744.426 3.04923 746.338 0.315178ZM729.062 85.2749C735.014 85.629 739.527 84.9472 745.326 83.501L745.316 42.8322C737.757 40.7091 736.167 40.1042 728.362 40.5831C703.986 47.2394 704.89 79.8068 729.062 85.2749Z" fill="#555D50"/>
<path d="M333.323 26.878C347.868 25.559 365.761 28.5895 372.768 42.4446C388.706 73.9546 366.838 106.019 331 97.0609C329.568 96.5664 330.077 96.6612 328.501 96.612C325.692 101.66 330.904 115.905 326.07 121.226C323.169 124.418 315.488 123.333 312.781 120.518C311.608 98.7976 313.067 76.1162 312.489 54.3026C312.289 46.7353 312.278 38.6171 312.908 31.0895C316.28 28.3554 328.525 27.4277 333.323 26.878ZM328.081 82.0656C338.157 86.3647 347.245 86.5675 356.251 79.8716C360.99 73.4325 363.153 67.3967 361.915 59.2918C358.838 39.1296 344.16 39.7225 328.577 40.7691C327.216 43.4119 327.631 77.3104 328.081 82.0656Z" fill="#555D50"/>
<path d="M642.624 26.6932C662.34 24.6972 679.973 39.0156 682.13 58.7697C684.285 78.525 670.157 96.3287 650.476 98.6559C630.56 101.013 612.546 86.6371 610.365 66.6454C608.184 46.6536 622.67 28.7119 642.624 26.6932ZM650.073 85.0264C655.833 83.2477 661.177 80.4825 663.63 74.6987C670.832 57.7207 663.232 39.7333 643.622 40.4894C622.659 45.1798 621.291 73.681 636.763 82.6909C640.796 84.9904 645.5 85.815 650.073 85.0264Z" fill="#555D50"/>
<path d="M422.071 26.8468C444.405 25.6862 456.661 38.8824 459.028 60.3792C459.313 62.9668 459.043 65.1764 457.292 67.1927C453.274 69.053 413.629 68.5213 406.346 68.5765C407.267 70.8473 408.507 74.0831 409.871 76.0442C413.162 80.8462 418.304 84.0531 424.055 84.8873C433.989 86.4247 440.593 82.4292 448.12 77.0151C450.608 78.6162 457.846 85.0205 454.699 88.279C443.618 100.271 417.733 102.104 404.954 91.9084C379.715 71.7678 388.874 31.3583 422.071 26.8468ZM406.394 57.2011L429.532 57.3522L442.905 56.9742C440.836 44.3961 434.928 39.234 422.171 39.8737C412.044 42.7242 409.089 47.2718 406.394 57.2011Z" fill="#555D50"/>
<path d="M234.453 28.0698C237.848 28.0098 241.165 27.6425 244.054 29.3216C247.697 34.7777 242.812 65.8688 246.022 74.6303C251.152 88.633 264.545 85.749 276.183 82.494C275.23 65.9985 276.531 46.1988 275.915 28.9819C276.44 28.8859 276.966 28.7959 277.494 28.7107C294.767 25.961 291.65 32.9306 291.459 47.1097C290.857 60.3191 291.57 79.3483 291.645 93.0114C279.539 97.895 264.447 99.7529 251.718 97.883C229.161 94.5717 228.126 75.2424 228.991 57.0234C229.424 47.8863 228.16 38.9568 229.825 29.69C231.543 28.1442 231.744 28.5667 234.453 28.0698Z" fill="#555D50"/>
<path d="M183.015 26.8576C190.736 26.5408 208.586 27.9342 212.237 35.7835C212.409 39.3205 209.452 42.8911 207.448 45.912C200.781 43.3652 182.956 35.361 176.321 43.6436C171.087 50.1763 186.307 54.8091 191.098 55.8149C208.529 59.4743 221.789 71.7379 209.868 89.7409C205.623 96.0708 195.767 98.0318 188.027 98.6908C177.163 98.5851 146.782 93.7471 164.355 77.9717C170.313 81.0058 174.94 84.6244 181.9 85.7106C187.879 86.6443 198.401 86.0371 199.114 78.0485C196.855 68.7542 176.126 68.5477 168.825 62.4003C165.234 59.8343 160.877 55.2687 160.612 50.3431C159.799 35.289 170.491 28.3651 183.015 26.8576Z" fill="#555D50"/>
<path d="M508.671 26.8492C510.779 26.8276 517.969 26.5684 518.746 29.186C519.72 32.4697 519.695 38.7108 518.218 41.7893C515.298 43.5056 509.647 41.5588 506.552 41.2072C500.994 40.5759 494.526 45.7307 490.408 48.9581C490.148 56.5325 491.429 87.1652 489.497 96.0239C489.162 97.5638 482.235 97.4258 479.581 97.4258C477.662 97.0729 477.37 97.1449 475.665 96.1295C474.382 92.8686 474.705 37.1601 475.269 30.4786C477.633 27.6581 485.447 27.4457 487.861 29.4536C489.255 31.7232 489.018 34.438 489.144 37.2225C495.676 29.9481 498.72 28.035 508.671 26.8492Z" fill="#555D50"/>
<path d="M86.8009 0.247274C91.2289 -0.506705 102.28 0.573409 106.657 2.00529C118.528 5.88742 121.282 10.3382 126.985 20.8179C129.522 21.9018 132.165 22.9073 134.532 24.3407C140.081 27.7016 138.728 34.162 132.202 34.4987C127.555 34.7382 122.932 33.0631 118.413 33.0405C110.6 33.002 102.675 34.1673 94.8761 34.8143C91.9934 43.5803 87.4002 51.5329 78.6243 54.6377C77.1776 55.1499 74.1233 55.7374 72.7475 54.9525C72.1554 53.3248 76.3997 42.9085 77.1989 39.1197C47.9334 49.3079 32.8503 59.9939 22.2902 91.5766C25.1921 92.888 26.8884 93.6593 29.3775 95.6704C33.1432 98.373 35.9528 102.385 37.6974 106.804C15.6624 103.77 14.5512 108.642 0.42685 124C0.260198 122.881 0.148866 121.755 0.091424 120.625C-0.619862 108.341 2.82665 101.708 10.1721 92.891C9.51401 70.4773 11.9074 51.7619 24.556 32.9245C27.2345 28.9354 30.1796 25.4668 33.1609 21.7375C30.3399 12.7139 28.596 11.093 21.0272 6.20603C32.4645 0.0679915 43.7742 2.63575 54.708 8.46722C66.2601 3.09296 74.3609 1.38992 86.8009 0.247274Z" fill="#555D50"/>
</svg>
