<?xml version="1.0" encoding="utf-8" ?><svg xmlns="http://www.w3.org/2000/svg" xmlns:xlink="http://www.w3.org/1999/xlink" width="1042" height="1042" viewBox="0 0 1042 1042"><path fill="#002C31" transform="matrix(1.01758 0 0 1.01758 6.10352e-05 3.05176e-05)" d="M459.598 335.176C468.322 334.115 474.966 335.408 482.809 339.068C473.14 345.048 468.33 349.756 467.047 361.625L467.248 361.882C471.983 368.063 479.408 373.571 484.659 379.811C502.751 401.311 508.487 426.104 511.056 453.158C512.63 454.605 514.186 456.071 515.726 457.555C526.646 468.16 530.358 477.562 530.595 492.577C508.272 472.25 503.887 471.101 474.973 477.074C478.254 465.302 482.469 458.954 494.08 453.938C487.74 438.559 474.824 424.127 461.928 413.9C445.615 401.784 425.461 393.779 405.499 390.219C406.971 395.427 408.403 398.997 411.092 403.729C412.144 405.581 415.024 410.414 414.473 412.321C411.317 413.755 404.517 411.902 401.23 410.56C390.79 406.301 383.948 398.182 379.527 388.005C370.202 387.605 360.188 387.962 350.862 389.129C342.467 390.176 334.046 393.615 325.561 393.389C321.698 393.198 319.928 389.479 320.89 386.069C322.46 380.507 329.983 377.123 334.727 374.446C345.823 338.379 381.449 338.282 413.387 342.337C419.811 343.153 426.303 345.131 432.633 345.753C441.987 340.152 448.584 336.622 459.598 335.176Z"/><path fill="#002C31" transform="matrix(1.01758 0 0 1.01758 6.10352e-05 3.05176e-05)" d="M614.547 228.703C631.688 227.949 650.447 228.649 662.732 242.321C666.335 246.33 667.943 250.174 670.537 254.737C673.653 255.778 675.942 256.629 679.113 258.226C683.512 260.44 686.281 264.2 683.48 269.052C682.587 270.597 679.66 271.587 677.873 271.676C671.534 271.995 665.052 270.51 658.696 270.418C648.947 270.452 638.553 271.666 628.805 272.633C625.519 283.728 618.112 293.629 606.745 297.541C604.631 298.268 600.265 298.995 598.227 297.932C598.03 296.597 599.539 293.668 600.204 292.182C602.424 287.221 603.622 283.324 604.952 278.063C570.429 288.39 541.607 308.892 530.459 344.665C534 346.418 536.369 347.444 539.445 349.894C545.211 354.114 547.759 357.667 550.407 364.093C521.813 362.269 520.722 364.568 502.051 386.065L501.376 385.808C500.828 384.282 500.654 383.473 500.602 381.83C500.127 366.757 503.917 357.468 513.631 346.602C512.549 308.795 519.307 285.362 544.578 257.013C541.304 245.374 538.059 243.246 528.003 237.214C530.304 235.876 532.737 234.779 535.264 233.942C548.494 229.638 562.058 233.025 574.086 239.142C586.16 233.256 601.29 230.165 614.547 228.703Z"/><path fill="#002C31" transform="matrix(1.01758 0 0 1.01758 6.10352e-05 3.05176e-05)" d="M612.825 697.197C635.727 695.01 653.059 706.874 655.409 730.313C659.084 766.968 632.741 785.899 598.848 772.279C599.234 782.296 598.912 794.902 598.898 805.098C597.638 805.167 596.378 805.225 595.117 805.272C591.701 805.394 589.176 805.632 586.634 803.267C584.881 799.737 585.123 791.657 585.133 787.563C585.195 762.679 584.783 737.764 585.258 712.888C585.293 711.099 585.751 709.237 586.294 707.538C594.36 700.352 602.29 698.479 612.825 697.197ZM598.987 713.428C598.899 727.043 598.407 746.525 599.07 759.802C606.439 764.839 614.111 766.507 622.901 764.786C624.996 764.365 627.056 763.788 629.064 763.061C634.954 759.839 639.07 755.485 640.762 748.821C646.392 726.647 637.409 706.173 611.448 708.637C605.808 709.924 604.092 710.669 598.987 713.428Z"/><path fill="#002C31" transform="matrix(1.01758 0 0 1.01758 6.10352e-05 3.05176e-05)" d="M814.704 667.568C817.643 667.365 822.215 666.704 824.97 667.887C826.07 668.36 826.893 668.948 827.28 670.126C828.59 674.125 828.738 753.527 828.253 762.126C828.158 763.818 828.061 765.242 827.12 766.702C823.944 771.631 817.865 773.999 812.388 775.295C799.603 778.32 784.936 777.436 773.601 770.404C746.697 751.796 756.929 695.914 793.807 697.031C802.27 697.287 806.814 697.446 814.566 701.583C814.513 690.244 814.558 678.906 814.704 667.568ZM791.525 764.894C799.505 766.194 807.02 765.448 814.521 762.314L814.522 713.707C807.672 709.769 803.814 708.553 795.701 708.688C789.104 709.531 781.762 711.816 777.935 717.524C767.576 732.979 770.408 760.754 791.525 764.894Z"/><path fill="#002C31" transform="matrix(1.01758 0 0 1.01758 6.10352e-05 3.05176e-05)" d="M375.785 697.191C402.298 695.177 418.637 709.557 418.734 736.475C418.755 742.224 418.451 745.99 416.97 751.565C410.535 775.786 384.846 781.392 363.735 772.899C363.41 772.885 363.084 772.87 362.758 772.856C363.323 781.836 362.896 796.229 362.822 805.456C358.054 805.611 353.311 806.635 350.035 802.643C348.832 796.804 348.592 714.403 349.906 708.391C355.874 701 366.772 698.255 375.785 697.191ZM362.982 712.966C362.765 727.402 361.999 746.113 362.614 760.331C371.304 765.353 379.571 766.587 389.357 764.051C389.72 763.956 390.082 763.856 390.443 763.751C396.604 760.766 401.541 756.395 403.351 749.597C408.976 728.476 401.865 706.953 376.377 708.579C370.673 709.602 368.174 710.389 362.982 712.966Z"/><path fill="#002C31" transform="matrix(1.01758 0 0 1.01758 6.10352e-05 3.05176e-05)" d="M703.267 697.176C723.305 695.872 739.999 704.538 743.237 725.402C747.152 750.639 739.789 771.611 713.125 776.472C703.199 776.775 694.436 776.701 685.772 770.685C667.715 758.146 666.366 727.228 678.213 710.187C684.208 701.564 693.257 698.629 703.267 697.176ZM710.479 765.311C725.49 762.297 730.489 753.208 731.182 738.619C731.989 721.642 724.485 707.162 705.092 708.608C698.886 709.654 692.39 711.858 689.065 717.517C678.092 736.197 683.526 767.626 710.479 765.311Z"/><path fill="#002C31" transform="matrix(1.01758 0 0 1.01758 6.10352e-05 3.05176e-05)" d="M381.794 580.708C400.303 578.78 432.27 581.405 450.156 586.449C484.847 596.234 510.477 601.602 546.836 598.606C561.763 597.324 576.506 594.424 590.807 589.959C596.403 588.189 601.524 585.801 607.452 583.949C613.216 581.274 620.073 588.496 617.045 593.606C613.344 599.851 595.357 604.306 589.135 606.273C582.916 608.058 575.764 609.654 569.422 610.858C537.262 616.959 504.159 615.964 472.424 607.942C450.071 602.387 430.152 595.999 406.613 595.368C398.394 595.148 392.142 595.343 383.027 595.703C378.875 595.425 355.306 600.177 353.322 598.136C337.158 581.505 377.151 581.087 381.794 580.708Z"/><path fill="#002C31" transform="matrix(1.01758 0 0 1.01758 6.10352e-05 3.05176e-05)" d="M607.256 338.641C620.169 341.08 624.3 348.825 629.528 359.449C649.399 367.555 674.36 380.928 667.045 406.867L667.855 408.998C669.061 412.095 669.836 414.024 668.942 417.367C664.99 421.842 659.194 413.271 656.227 410.368C650.908 405.162 646.521 401.575 640.077 397.792C638.967 398.239 637.851 398.669 636.729 399.083C631.585 400.963 618.356 401.988 616.159 395.565C616.94 394.588 624.618 391.111 626.96 389.268C620.574 386.521 616.839 385.153 610.099 383.415C592.305 379.84 577.203 381.728 561.976 391.628C565.058 398.378 564.874 402.555 563.348 409.471C561.09 407.259 559.343 405.044 556.852 402.761C548.793 395.373 540.214 396.996 530.194 397.634C537.096 388.269 542.777 386.146 553.939 385.432C563.503 371.151 576.113 361.931 593.051 357.467C597.41 356.318 605.087 356.351 608.189 353.656C611.442 346.392 607.25 344.452 607.256 338.641Z"/><path fill="#002C31" transform="matrix(1.01758 0 0 1.01758 6.10352e-05 3.05176e-05)" d="M403.643 610.743C418.534 610.67 433.399 611.99 448.044 614.684C459.856 616.915 471.767 620.299 483.501 623.17C512.979 630.42 544.202 632.306 573.957 625.57C577.728 624.716 593.154 619.784 595.941 622.664C601.901 628.82 599.334 634.861 591.097 637.059C581.228 639.692 571.916 641.646 561.744 642.832C540.419 646.755 504.402 644.03 483.838 638.652C450.627 629.484 418.727 623.359 384.036 626.607C380.881 626.903 355.876 633.84 363.796 616.338C365.954 611.57 397.101 610.94 403.643 610.743Z"/><path fill="#002C31" transform="matrix(1.01758 0 0 1.01758 6.10352e-05 3.05176e-05)" d="M465.277 697.163C474.712 696.152 484.175 697.813 491.667 703.942C498.753 709.74 503.036 719.18 503.73 728.229C503.917 730.665 503.959 733.898 502.027 735.735C497.606 739.939 455.743 742.993 447.531 743.624C447.921 745.434 448.321 747.252 448.933 749.002C451.065 755.121 455.558 760.133 461.408 762.92C470.816 767.321 481.187 765.558 490.548 762.184C492.952 760.695 495.425 758.688 498.085 758.907C501.88 760.872 501.052 765.826 498.98 768.253C488.209 780.868 459.898 778.204 448.216 769.518C430.513 756.356 429.566 726.71 441.213 709.915C446.725 701.967 456.224 698.481 465.277 697.163ZM446.894 733.314C454.234 732.312 461.59 731.43 468.959 730.67C476.281 730.05 483.591 729.283 490.883 728.37C488.083 715.011 481.193 706.702 466.445 708.089C452.058 711.28 448.179 719.846 446.894 733.314Z"/><path fill="#002C31" transform="matrix(1.01758 0 0 1.01758 6.10352e-05 3.05176e-05)" d="M378.561 550.214C399.354 549.249 424.424 550.606 444.174 556.508C478.56 567.074 514.517 579.252 550.808 569.831C560.557 567.3 569.267 570.712 563.998 580.875C561.266 586.144 530.665 587.733 524.142 587.998C506.503 587.787 488.969 585.25 471.994 580.452C460.152 577.097 448.517 572.905 436.525 570.042C420.802 566.245 404.676 564.371 388.501 564.461C379.672 564.51 371.797 565.474 363.363 566.311C355.944 567.047 338.822 574.38 337.35 563.892C336.916 562.58 337.6 558.483 338.803 557.647C347.515 551.593 368.5 550.786 378.561 550.214Z"/><path fill="#002C31" transform="matrix(1.01758 0 0 1.01758 6.10352e-05 3.05176e-05)" d="M310.544 698.605C323.995 697.422 324.14 699.072 324.033 711.875C323.991 720.234 325.401 762.335 322.938 766.745C320.625 770.884 314.211 773.289 309.845 774.584C298.489 777.952 281.357 778.438 270.711 772.478C264.871 769.209 260.815 764.249 258.996 757.785C258.251 755.139 257.913 752.385 257.756 749.646C257.15 739.069 257.66 728.275 257.712 717.68C257.737 712.618 257.18 707.415 257.432 702.387C257.488 701.268 257.555 699.847 258.215 698.899C258.624 698.313 259.94 698.33 260.627 698.217C263.267 698.278 270.819 698.12 271.12 702.177C271.921 712.974 271.088 724.225 271.35 735.078C271.517 742.027 270.503 749.315 273.243 755.839C278.363 769.01 301.329 766.296 310.522 761.705L310.544 698.605Z"/><path fill="#002C31" transform="matrix(1.01758 0 0 1.01758 6.10352e-05 3.05176e-05)" d="M207.947 696.714C215.678 697.214 224.574 697.52 230.762 702.838C233.361 705.073 235.911 710.171 233.008 713.037C232.638 713.403 230.646 714.302 230.233 714.112C227.271 712.749 224.334 711.302 221.299 710.11C218.605 709.207 214.959 708.01 212.158 707.848C204.639 707.413 193.135 708.557 193.24 718.522C193.338 727.807 212.067 729.867 219.262 731.921C237.105 737.015 244.719 753.583 232.513 768.724C226.453 776.07 215.152 776.647 205.625 776.598C197.135 776.502 171.172 772.896 181.052 758.379C182.35 756.472 187.746 760.061 189.243 760.993C198.235 767.188 228.243 769.611 223.963 751.921C219.995 735.526 180.847 744.318 179.856 721.775C178.995 702.213 191.629 697.834 207.947 696.714Z"/><path fill="#002C31" transform="matrix(1.01758 0 0 1.01758 6.10352e-05 3.05176e-05)" d="M553.51 543.616C569.045 543.026 586.731 545.123 602.783 549.046C613.929 551.771 640.709 558.793 648.839 567.853C652.126 571.516 647.993 576.061 643.882 578.254C639.289 577.821 635.51 576.305 631.365 574.519C609.069 564.918 585.913 558.871 561.502 558.93C553.682 558.949 544.12 558.439 548.41 547.474C549.313 545.167 551.363 544.342 553.51 543.616Z"/><path fill="#002C31" transform="matrix(1.01758 0 0 1.01758 6.10352e-05 3.05176e-05)" d="M549.764 697.196C552.831 696.982 555.903 696.862 558.977 696.835C562.041 696.821 567.503 696.976 569.725 699.509C571.196 701.185 572.629 708.786 568.844 708.797C566.106 708.806 562.832 708.351 560.007 708.142C551.662 707.551 543.315 709.271 535.882 713.111C535.435 729.304 535.853 747.504 535.882 763.875L535.824 775.057C532.706 775.172 527.459 775.67 524.574 774.276C523.306 773.663 522.969 772.063 522.868 770.656C522.267 762.351 522.478 753.345 522.466 744.988C522.451 734.395 522.287 723.704 522.657 713.15C522.716 711.488 523.183 708.27 524.207 707.039C529.878 700.222 541.466 698.277 549.764 697.196Z"/><path fill="#002C31" transform="matrix(1.01758 0 0 1.01758 6.10352e-05 3.05176e-05)" d="M530.889 510.122C535.505 509.861 540.143 511.654 541.874 516.172C546.461 528.151 527.76 533.434 521.243 540.545C516.752 545.447 515.561 547.083 513.128 553.347C512.517 555.538 511.86 557.716 511.156 559.879L510.58 559.687C503.647 544.577 512.588 513.405 530.889 510.122Z"/><path fill="#002C31" transform="matrix(1.01758 0 0 1.01758 6.10352e-05 3.05176e-05)" d="M466.696 527.141C484.367 526.285 495.037 545.775 495.707 561.244L492.032 555.792C487.03 550.7 478.483 545.405 471.369 545.647C457.483 546.12 453.23 530.212 466.696 527.141Z"/></svg>